<svg width="118" height="130" viewBox="0 0 118 130" fill="none" xmlns="http://www.w3.org/2000/svg">
<path d="M19 55C22.6 43 35.5 44 41.5 46V70.5C41.5 80.5 45 76.5 49 82.5C62.5 102.5 50.5 121 49 122.5C47.8 123.7 43.8333 126.333 42 127.5C54.8 129.5 62 125.667 64 123.5C64.1667 92.3333 64.5 29.8 64.5 29C64.5 28.2 62.5 28 61.5 28H58C56 28 55.8333 30.3333 56 31.5V65C56 66.6 55 67.6667 54.5 68C54.1667 68.1667 53.1 68.4 51.5 68C49.9 67.6 49.5 66.1667 49.5 65.5V30.5C49.5 28.5 48.1667 28 47.5 28H44C42.4 28 41.6666 29.6667 41.5 30.5V42C34.5 42.5 23.6649 38.8906 13 50C-4.2 70 10.8333 86 20.5 91.5C27.1667 95.3333 39.3 105.6 34.5 116C26.1 131.6 8 126.167 0 121.5C2.5 125 22.5 139.5 45 116C57.8 95.2 38.3333 78.3333 27 72.5C23.5 70 17 63 19 55Z" fill="#D9D9D9"/>
<path d="M84.5 69.5C85.3 56.3 74.8333 49.3333 69.5 47.5H69V42C95 41 106 56 101.5 73C97.9 86.6 84.3333 91 78 91.5C77.8333 91.8333 79.4 94.9 87 104.5C94.6 114.1 110.5 123.833 117.5 127.5C96.3 132.3 84.6667 120.833 81.5 114.5L73 92.5H69L70 90.5C74.5 89 83.7 82.7 84.5 69.5Z" fill="#D9D9D9"/>
<circle cx="48" cy="17" r="6" fill="#D9D9D9"/>
<circle cx="53.5" cy="6.5" r="4.5" fill="#D9D9D9"/>
<circle cx="60.5" cy="2.5" r="2.5" fill="#D9D9D9"/>
<circle cx="64" cy="16" r="7" fill="#D9D9D9"/>
</svg>
