<svg width="60" height="66" viewBox="0 0 60 66" fill="none" xmlns="http://www.w3.org/2000/svg">
<path d="M9.58332 27.7413C11.3991 21.6886 17.9057 22.193 20.932 23.2018V35.5592C20.932 40.6031 22.6974 38.5856 24.7149 41.6119C31.5242 51.6996 25.4715 61.0308 24.7149 61.7873C24.1097 62.3926 22.1089 63.7208 21.1842 64.3093C27.6404 65.3181 31.272 63.3846 32.2807 62.2917C32.3648 46.5717 32.5329 15.0307 32.5329 14.6272C32.5329 14.2237 31.5242 14.1228 31.0198 14.1228H29.2544C28.2456 14.1228 28.1616 15.2997 28.2456 15.8882V32.7851C28.2456 33.5921 27.7413 34.1302 27.4891 34.2983C27.3209 34.3823 26.7829 34.5 25.9759 34.2983C25.1689 34.0965 24.9671 33.3736 24.9671 33.0373V15.3838C24.9671 14.375 24.2946 14.1228 23.9584 14.1228H22.193C21.386 14.1228 21.0161 14.9635 20.932 15.3838V21.1842C17.4013 21.4364 11.9363 19.6159 6.55702 25.2193C-2.11842 35.3071 5.46419 43.3772 10.3399 46.1514C13.7025 48.0848 19.8224 53.2632 17.4013 58.5088C13.1645 66.3773 4.03509 63.6368 0 61.283C1.26097 63.0483 11.3487 70.3619 22.6974 58.5088C29.1535 48.0176 19.3348 39.5103 13.6184 36.568C11.8531 35.3071 8.57455 31.7764 9.58332 27.7413Z" fill="#54C4CE"/>
<path d="M42.6207 35.0549C43.0242 28.397 37.7449 24.8831 35.0549 23.9584H34.8027V21.1842C47.9167 20.6798 53.465 28.2456 51.1952 36.8202C49.3794 43.6799 42.5366 45.8992 39.3421 46.1514C39.2581 46.3195 40.0483 47.8663 43.8816 52.7084C47.715 57.5505 55.7347 62.4599 59.2654 64.3093C48.5724 66.7303 42.7047 60.9467 41.1075 57.7523L36.8202 46.6558H34.8027L35.3071 45.647C37.5768 44.8904 42.2171 41.7128 42.6207 35.0549Z" fill="#54C4CE"/>
<circle cx="24.2105" cy="8.57457" r="3.02632" fill="#54C4CE"/>
<circle cx="26.9847" cy="3.27851" r="2.26974" fill="#54C4CE"/>
<circle cx="30.5154" cy="1.26097" r="1.26097" fill="#54C4CE"/>
<circle cx="32.2807" cy="8.07018" r="3.53071" fill="#54C4CE"/>
</svg>
